<svg width="30" height="30" viewBox="0 0 30 30" fill="none" xmlns="http://www.w3.org/2000/svg">
<path fill-rule="evenodd" clip-rule="evenodd" d="M15 0C6.71573 0 0 6.71573 0 15C0 23.2843 6.71573 30 15 30C23.2843 30 30 23.2843 30 15C30 6.71573 23.2843 0 15 0ZM11.7021 7.04833C12.5555 7.0095 12.8281 7 15.0008 7H14.9983C17.1717 7 17.4433 7.0095 18.2967 7.04833C19.1484 7.08733 19.73 7.22217 20.24 7.42C20.7667 7.62417 21.2117 7.89751 21.6567 8.34251C22.1017 8.78719 22.3751 9.23352 22.5801 9.7597C22.7767 10.2684 22.9117 10.8497 22.9517 11.7014C22.9901 12.5547 23.0001 12.8274 23.0001 15.0001C23.0001 17.1728 22.9901 17.4448 22.9517 18.2981C22.9117 19.1495 22.7767 19.731 22.5801 20.2398C22.3751 20.7658 22.1017 21.2122 21.6567 21.6568C21.2122 22.1018 20.7665 22.3758 20.2405 22.5802C19.7315 22.778 19.1495 22.9128 18.2978 22.9518C17.4445 22.9907 17.1727 23.0002 14.9998 23.0002C12.8273 23.0002 12.5548 22.9907 11.7014 22.9518C10.8499 22.9128 10.2684 22.778 9.75942 22.5802C9.23358 22.3758 8.78725 22.1018 8.34274 21.6568C7.8979 21.2122 7.62457 20.7658 7.42007 20.2396C7.2224 19.731 7.08756 19.1496 7.04839 18.298C7.00973 17.4446 7.00006 17.1728 7.00006 15.0001C7.00006 12.8274 7.01006 12.5546 7.04823 11.7012C7.08656 10.8499 7.22156 10.2684 7.4199 9.75953C7.6249 9.23352 7.89824 8.78719 8.34324 8.34251C8.78791 7.89768 9.23425 7.62434 9.76042 7.42C10.2691 7.22217 10.8504 7.08733 11.7021 7.04833Z" fill="#FDCF55"/>
<path fill-rule="evenodd" clip-rule="evenodd" d="M14.2831 8.44194C14.4224 8.44172 14.5723 8.44179 14.7341 8.44186L15.0007 8.44194C17.1367 8.44194 17.3899 8.44961 18.2334 8.48794C19.0134 8.52361 19.4368 8.65394 19.7188 8.76344C20.0921 8.90845 20.3583 9.08178 20.6381 9.36178C20.9181 9.64179 21.0915 9.90846 21.2368 10.2818C21.3463 10.5635 21.4768 10.9868 21.5123 11.7668C21.5506 12.6102 21.559 12.8635 21.559 14.9985C21.559 17.1335 21.5506 17.3869 21.5123 18.2302C21.4766 19.0102 21.3463 19.4336 21.2368 19.7152C21.0918 20.0886 20.9181 20.3544 20.6381 20.6342C20.3581 20.9142 20.0923 21.0876 19.7188 21.2326C19.4371 21.3426 19.0134 21.4726 18.2334 21.5082C17.3901 21.5466 17.1367 21.5549 15.0007 21.5549C12.8645 21.5549 12.6114 21.5466 11.768 21.5082C10.988 21.4722 10.5647 21.3419 10.2825 21.2324C9.90917 21.0874 9.6425 20.9141 9.3625 20.6341C9.0825 20.3541 8.90916 20.0881 8.76383 19.7146C8.65432 19.4329 8.52382 19.0096 8.48832 18.2295C8.44999 17.3862 8.44232 17.1329 8.44232 14.9965C8.44232 12.8602 8.44999 12.6082 8.48832 11.7648C8.52399 10.9848 8.65432 10.5615 8.76383 10.2795C8.90883 9.90612 9.0825 9.63945 9.3625 9.35945C9.6425 9.07945 9.90917 8.90611 10.2825 8.76078C10.5645 8.65078 10.988 8.52078 11.768 8.48494C12.506 8.45161 12.792 8.44161 14.2831 8.43994V8.44194ZM19.2712 9.76986C18.7412 9.76986 18.3112 10.1994 18.3112 10.7295C18.3112 11.2595 18.7412 11.6896 19.2712 11.6896C19.8012 11.6896 20.2312 11.2595 20.2312 10.7295C20.2312 10.1995 19.8012 9.76953 19.2712 9.76953V9.76986ZM10.8923 15C10.8923 12.7312 12.7318 10.8917 15.0005 10.8916C17.2694 10.8916 19.1084 12.7311 19.1084 15C19.1084 17.2688 17.2696 19.1075 15.0007 19.1075C12.7319 19.1075 10.8923 17.2688 10.8923 15Z" fill="#FDCF55"/>
<path d="M15.0007 12.3335C16.4734 12.3335 17.6674 13.5273 17.6674 15.0002C17.6674 16.4729 16.4734 17.6669 15.0007 17.6669C13.5279 17.6669 12.334 16.4729 12.334 15.0002C12.334 13.5273 13.5279 12.3335 15.0007 12.3335Z" fill="#FDCF55"/>
</svg>
