<svg width="30" height="30" viewBox="0 0 30 30" fill="none" xmlns="http://www.w3.org/2000/svg">
<path fill-rule="evenodd" clip-rule="evenodd" d="M15 0C6.71573 0 0 6.71573 0 15C0 23.2843 6.71573 30 15 30C23.2843 30 30 23.2843 30 15C30 6.71573 23.2843 0 15 0ZM16.2214 19.7351C16.0735 19.8911 15.7848 19.9226 15.7848 19.9226H14.8285C14.8285 19.9226 12.7187 20.047 10.8601 18.1481C8.83327 16.0764 7.04355 11.966 7.04355 11.966C7.04355 11.966 6.94026 11.6963 7.05216 11.5665C7.17815 11.4198 7.5217 11.4106 7.5217 11.4106L9.80756 11.396C9.80756 11.396 10.0228 11.4306 10.1769 11.5419C10.3045 11.6341 10.3757 11.8054 10.3757 11.8054C10.3757 11.8054 10.7451 12.7226 11.2342 13.5522C12.1897 15.1723 12.6342 15.5264 12.9581 15.3528C13.4308 15.1 13.2892 13.0629 13.2892 13.0629C13.2892 13.0629 13.2978 12.3239 13.0513 11.9944C12.8603 11.7394 12.5003 11.6648 12.3415 11.6441C12.2124 11.6272 12.4237 11.3338 12.6976 11.2024C13.1092 11.005 13.8354 10.9935 14.6939 11.0019C15.363 11.0088 15.5555 11.0495 15.8168 11.1118C16.4235 11.2555 16.4045 11.716 16.3637 12.7098C16.3514 13.007 16.3372 13.352 16.3372 13.7504C16.3372 13.8399 16.3346 13.9354 16.3319 14.0336C16.3177 14.5427 16.3014 15.1258 16.6432 15.3428C16.8185 15.4534 17.2466 15.3589 18.3179 13.5737C18.8258 12.7272 19.2061 11.7324 19.2061 11.7324C19.2061 11.7324 19.2898 11.555 19.419 11.4789C19.5512 11.4014 19.7296 11.4252 19.7296 11.4252L22.1352 11.4106C22.1352 11.4106 22.8583 11.3253 22.9749 11.6464C23.0978 11.9821 22.7049 12.7672 21.722 14.053C20.7897 15.2732 20.3359 15.7224 20.3776 16.1197C20.408 16.41 20.703 16.6726 21.2689 17.1879C22.4504 18.2647 22.7671 18.8312 22.8432 18.9673C22.8495 18.9786 22.8542 18.9869 22.8575 18.9923C23.3873 19.855 22.2698 19.9226 22.2698 19.9226L20.1327 19.9517C20.1327 19.9517 19.6741 20.0408 19.0699 19.6337C18.7535 19.4206 18.4442 19.0726 18.1497 18.7411C17.6999 18.2349 17.2843 17.7672 16.9296 17.8777C16.3341 18.0636 16.3521 19.3226 16.3521 19.3226C16.3521 19.3226 16.3568 19.5922 16.2214 19.7351Z" fill="#FDCF55"/>
</svg>
